<svg width="160" height="160" viewBox="0 0 160 160" fill="none" xmlns="http://www.w3.org/2000/svg">
<path d="M0 20C0 8.95431 8.95431 0 20 0H140C151.046 0 160 8.95431 160 20V140C160 151.046 151.046 160 140 160H20C8.95431 160 0 151.046 0 140V20Z" fill="#FF78C4"/>
<path d="M111.943 58.7669C101.992 51.6912 88.1154 56.2416 84.14 67.6052C86.7527 69.7553 88.7779 72.5306 89.853 75.7184C94.791 73.8557 100.579 75.1808 104.954 77.8811C108.667 80.1813 111.717 83.6316 112.968 87.7195C122.256 80.0438 121.668 65.705 111.943 58.7669Z" fill="#2A2F4F"/>
<path d="M71.7635 64.8674C61.6376 64.0923 52.4368 70.2429 51.5742 80.7938C40.5357 80.7938 28.8097 87.4444 30.0973 99.9081C31.0974 109.721 40.6982 115.872 50.0491 115.872H108.679C115.942 115.872 123.381 110.809 123.431 103.046C123.481 96.0702 117.793 91.6573 111.43 90.3197C110.58 85.6193 107.904 82.1565 103.866 79.6312C98.866 76.5185 93.778 75.9934 88.515 78.6311C86.3648 70.3804 80.2143 65.5175 71.7635 64.8674Z" fill="#2A2F4F"/>
<path d="M103.091 46.3783V50.5911C103.091 52.4413 100.303 52.4038 100.303 50.5911V46.3783C100.303 44.5406 103.091 44.5406 103.091 46.3783Z" fill="#2A2F4F"/>
<path d="M89.2273 49.166L91.34 52.8163C92.2651 54.4165 89.8274 55.7791 88.9273 54.2039L86.8146 50.5536C85.902 48.966 88.3147 47.5783 89.2273 49.166Z" fill="#2A2F4F"/>
<path d="M78.6143 58.5168L82.2646 60.617C83.8772 61.5421 82.4521 63.9298 80.877 63.0298L77.2266 60.9171C75.639 60.0045 77.0391 57.5918 78.6143 58.5168Z" fill="#2A2F4F"/>
<path d="M124.118 88.7696L120.455 86.6569C118.855 85.7318 120.28 83.3441 121.855 84.2442L125.505 86.3568C127.093 87.2694 125.693 89.6821 124.118 88.7696Z" fill="#2A2F4F"/>
<path d="M128.631 75.3684H124.406C122.556 75.3684 122.606 72.5806 124.406 72.5806H128.631C130.457 72.5806 130.457 75.3684 128.631 75.3684Z" fill="#2A2F4F"/>
<path d="M125.843 61.5046L122.193 63.6173C120.58 64.5424 119.23 62.1047 120.793 61.2046L124.443 59.0919C126.031 58.1793 127.418 60.592 125.843 61.5046Z" fill="#2A2F4F"/>
<path d="M116.493 50.8912L114.38 54.5415C113.455 56.1416 111.067 54.7165 111.98 53.1539L114.08 49.5035C114.993 47.9159 117.405 49.3035 116.493 50.8912Z" fill="#2A2F4F"/>
</svg>
